<svg viewBox="0 0 64 64" xmlns="http://www.w3.org/2000/svg"><circle cx="34" cy="35" fill="#e5efef" r="23"/><g stroke="#4c241d" stroke-linecap="round" stroke-linejoin="round" stroke-width="2"><path d="m22.973 8.665a6.775 6.775 0 0 0 -4.764 2.005 6.777 6.777 0 0 0 -4.765-2.005c-3.947 0-7.147 3.5-7.147 7.826s8.338 11.738 11.912 14.347c3.573-2.609 11.911-10.025 11.911-14.347s-3.2-7.826-7.147-7.826z" fill="#f53e28"/><path d="m49.973 35.665a6.775 6.775 0 0 0 -4.764 2.005 6.777 6.777 0 0 0 -4.765-2.005c-3.947 0-7.147 3.5-7.147 7.826s8.338 11.738 11.912 14.347c3.573-2.609 11.911-10.025 11.911-14.347s-3.2-7.826-7.147-7.826z" fill="#fff"/><path d="m26 35v2" fill="none"/><path d="m26 41v2" fill="none"/><path d="m22 39h2" fill="none"/><path d="m28 39h2" fill="none"/><circle cx="37.5" cy="7.5" fill="none" r="2.5"/><circle cx="4.5" cy="59.5" fill="none" r="2.5"/></g><path d="m32.651 29.1a1.069 1.069 0 1 1 -1.069-1.069 1.069 1.069 0 0 1 1.069 1.069z" fill="#4c241d"/><path d="m59.651 27.1a1.069 1.069 0 1 1 -1.069-1.069 1.069 1.069 0 0 1 1.069 1.069z" fill="#4c241d"/><path d="m6.651 4.1a1.069 1.069 0 1 1 -1.069-1.071 1.069 1.069 0 0 1 1.069 1.071z" fill="#4c241d"/><path d="m58.651 58.1a1.069 1.069 0 1 1 -1.069-1.069 1.069 1.069 0 0 1 1.069 1.069z" fill="#4c241d"/><path d="m5.651 32.1a1.069 1.069 0 1 1 -1.069-1.069 1.069 1.069 0 0 1 1.069 1.069z" fill="#4c241d"/><path d="m46.04 18.49a2.605 2.605 0 0 0 -1.831.77 2.609 2.609 0 0 0 -1.832-.77 2.887 2.887 0 0 0 -2.747 3.01c0 1.661 3.2 4.512 4.579 5.515 1.373-1 4.578-3.854 4.578-5.515a2.887 2.887 0 0 0 -2.747-3.01z" fill="#9dc1e4" stroke="#4c241d" stroke-linecap="round" stroke-linejoin="round" stroke-width="2"/><path d="m57.04 4.49a2.605 2.605 0 0 0 -1.831.77 2.609 2.609 0 0 0 -1.832-.77 2.887 2.887 0 0 0 -2.747 3.01c0 1.661 3.2 4.512 4.579 5.515 1.373-1 4.578-3.854 4.578-5.515a2.887 2.887 0 0 0 -2.747-3.01z" fill="#fff" stroke="#4c241d" stroke-linecap="round" stroke-linejoin="round" stroke-width="2"/><path d="m14.04 39.49a2.605 2.605 0 0 0 -1.831.77 2.609 2.609 0 0 0 -1.832-.77 2.887 2.887 0 0 0 -2.747 3.01c0 1.661 3.205 4.512 4.579 5.515 1.373-1 4.578-3.854 4.578-5.515a2.887 2.887 0 0 0 -2.747-3.01z" fill="#9dc1e4" stroke="#4c241d" stroke-linecap="round" stroke-linejoin="round" stroke-width="2"/><path d="m27.04 51.49a2.605 2.605 0 0 0 -1.831.77 2.609 2.609 0 0 0 -1.832-.77 2.887 2.887 0 0 0 -2.747 3.01c0 1.661 3.205 4.512 4.579 5.515 1.373-1 4.578-3.854 4.578-5.515a2.887 2.887 0 0 0 -2.747-3.01z" fill="#f53e28" stroke="#4c241d" stroke-linecap="round" stroke-linejoin="round" stroke-width="2"/></svg>